<svg width="48.000000" height="48.000000" viewBox="0 0 48 48" fill="none" xmlns="http://www.w3.org/2000/svg" xmlns:xlink="http://www.w3.org/1999/xlink">
	<desc>
			Created with Pixso.
	</desc>
	<defs>
		<clipPath id="clip533_2329">
			<rect id="Icon" rx="0.000000" width="47.000000" height="47.000000" transform="translate(0.500000 0.500000)" fill="white" fill-opacity="0"/>
		</clipPath>
	</defs>
	<rect id="Icon" rx="0.000000" width="47.000000" height="47.000000" transform="translate(0.500000 0.500000)" fill="#FFFFFF" fill-opacity="0"/>
	<g clip-path="url(#clip533_2329)">
		<path id="Vector" d="M25.03 13.91L14.03 12.24C13.52 12.16 13 12.3 12.61 12.63C12.23 12.97 12 13.46 12 13.97L12 35.04C12 35.59 12.44 36.04 13 36.04L16.25 36.04L16.25 30.79C16.25 29.82 17.03 29.04 18 29.04L20.5 29.04C21.47 29.04 22.25 29.82 22.25 30.79L22.25 36.04L26.5 36.04L26.5 15.64C26.5 14.78 25.87 14.05 25.03 13.91ZM17.5 26.79L16 26.79C15.58 26.79 15.25 26.45 15.25 26.04C15.25 25.63 15.58 25.29 16 25.29L17.5 25.29C17.91 25.29 18.25 25.63 18.25 26.04C18.25 26.45 17.91 26.79 17.5 26.79ZM17.5 23.79L16 23.79C15.58 23.79 15.25 23.45 15.25 23.04C15.25 22.63 15.58 22.29 16 22.29L17.5 22.29C17.91 22.29 18.25 22.63 18.25 23.04C18.25 23.45 17.91 23.79 17.5 23.79ZM17.5 20.79L16 20.79C15.58 20.79 15.25 20.45 15.25 20.04C15.25 19.63 15.58 19.29 16 19.29L17.5 19.29C17.91 19.29 18.25 19.63 18.25 20.04C18.25 20.45 17.91 20.79 17.5 20.79ZM17.5 17.79L16 17.79C15.58 17.79 15.25 17.45 15.25 17.04C15.25 16.63 15.58 16.29 16 16.29L17.5 16.29C17.91 16.29 18.25 16.63 18.25 17.04C18.25 17.45 17.91 17.79 17.5 17.79ZM22.5 26.79L21 26.79C20.58 26.79 20.25 26.45 20.25 26.04C20.25 25.63 20.58 25.29 21 25.29L22.5 25.29C22.91 25.29 23.25 25.63 23.25 26.04C23.25 26.45 22.91 26.79 22.5 26.79ZM22.5 23.79L21 23.79C20.58 23.79 20.25 23.45 20.25 23.04C20.25 22.63 20.58 22.29 21 22.29L22.5 22.29C22.91 22.29 23.25 22.63 23.25 23.04C23.25 23.45 22.91 23.79 22.5 23.79ZM22.5 20.79L21 20.79C20.58 20.79 20.25 20.45 20.25 20.04C20.25 19.63 20.58 19.29 21 19.29L22.5 19.29C22.91 19.29 23.25 19.63 23.25 20.04C23.25 20.45 22.91 20.79 22.5 20.79ZM22.5 17.79L21 17.79C20.58 17.79 20.25 17.45 20.25 17.04C20.25 16.63 20.58 16.29 21 16.29L22.5 16.29C22.91 16.29 23.25 16.63 23.25 17.04C23.25 17.45 22.91 17.79 22.5 17.79Z" fill="#232536" fill-opacity="1.000000" fill-rule="nonzero"/>
		<path id="Vector" d="M34.62 22.88L27.5 21.39L27.5 36.04L34.25 36.04C35.21 36.04 36 35.26 36 34.29L36 24.59C36 23.77 35.43 23.06 34.62 22.88ZM32.25 33.04L30.75 33.04C30.33 33.04 30 32.7 30 32.29C30 31.88 30.33 31.54 30.75 31.54L32.25 31.54C32.66 31.54 33 31.88 33 32.29C33 32.7 32.66 33.04 32.25 33.04ZM32.25 30.04L30.75 30.04C30.33 30.04 30 29.7 30 29.29C30 28.88 30.33 28.54 30.75 28.54L32.25 28.54C32.66 28.54 33 28.88 33 29.29C33 29.7 32.66 30.04 32.25 30.04ZM32.25 27.04L30.75 27.04C30.33 27.04 30 26.7 30 26.29C30 25.88 30.33 25.54 30.75 25.54L32.25 25.54C32.66 25.54 33 25.88 33 26.29C33 26.7 32.66 27.04 32.25 27.04Z" fill="#FFD050" fill-opacity="1.000000" fill-rule="nonzero"/>
	</g>
</svg>
