<svg width="48.000000" height="48.000000" viewBox="-12 -10 48 48" fill="none" xmlns="http://www.w3.org/2000/svg" xmlns:xlink="http://www.w3.org/1999/xlink">
	

<!-- <svg width="23.000000" height="23.000000" viewBox="0 0 23 23" fill="none" xmlns="http://www.w3.org/2000/svg" xmlns:xlink="http://www.w3.org/1999/xlink"> -->
	<desc>
			Created with Pixso.
	</desc>
	<defs>
		<clipPath id="clip533_2350">
			<rect id="shuttle" rx="0.000000" width="22.000000" height="22.000000" transform="translate(0.500000 0.500000)" fill="white" fill-opacity="0"/>
		</clipPath>
	</defs>
	<rect id="shuttle" rx="0.000000" width="22.000000" height="22.000000" transform="translate(0.500000 0.500000)" fill="#FFFFFF" fill-opacity="0"/>
	<g clip-path="url(#clip533_2350)">
		<path id="Vector" d="M5.84 6.21L3.85 6.36C3.3 6.4 2.81 6.69 2.5 7.16L0.2 10.63C-0.03 10.99 -0.07 11.43 0.1 11.81C0.27 12.2 0.62 12.47 1.04 12.53L2.86 12.81C3.29 10.55 4.31 8.29 5.84 6.21Z" fill="#FFD050" fill-opacity="1.000000" fill-rule="nonzero"/>
		<path id="Vector" d="M10.18 20.13L10.46 21.95C10.53 22.37 10.79 22.72 11.18 22.89C11.34 22.96 11.51 23 11.68 23C11.92 23 12.15 22.93 12.36 22.79L15.83 20.49C16.3 20.19 16.59 19.69 16.63 19.14L16.78 17.14C14.7 18.68 12.44 19.7 10.18 20.13Z" fill="#FFD050" fill-opacity="1.000000" fill-rule="nonzero"/>
		<path id="Vector" d="M9.49 18.86C9.56 18.86 9.62 18.86 9.68 18.85C10.63 18.69 11.55 18.42 12.42 18.07L4.92 10.57C4.57 11.44 4.3 12.36 4.14 13.31C4.08 13.68 4.21 14.06 4.48 14.33L8.66 18.51C8.88 18.74 9.18 18.86 9.49 18.86Z" fill="#FFD050" fill-opacity="1.000000" fill-rule="nonzero"/>
		<path id="Vector" d="M21.16 10.19C23 6.64 23.06 2.9 22.97 1.14C22.93 0.54 22.46 0.05 21.85 0.02C21.57 0.01 21.23 0 20.84 0C18.88 0 15.77 0.29 12.8 1.83C10.44 3.05 7.34 5.74 5.52 9.27C5.54 9.29 5.56 9.31 5.58 9.33L13.66 17.41C13.68 17.43 13.7 17.45 13.72 17.47C17.25 15.65 19.94 12.55 21.16 10.19ZM13.37 4.86C14.68 3.54 16.82 3.54 18.13 4.86C18.77 5.49 19.12 6.34 19.12 7.24C19.12 8.14 18.77 8.99 18.13 9.62C17.48 10.28 16.61 10.61 15.75 10.61C14.89 10.61 14.02 10.28 13.37 9.62C12.73 8.99 12.38 8.14 12.38 7.24C12.38 6.34 12.73 5.49 13.37 4.86Z" fill="#232536" fill-opacity="1.000000" fill-rule="nonzero"/>
		<path id="Vector" d="M14.32 8.67C15.11 9.46 16.39 9.46 17.18 8.67C17.56 8.29 17.77 7.78 17.77 7.24C17.77 6.7 17.56 6.19 17.18 5.81C16.79 5.42 16.27 5.22 15.75 5.22C15.23 5.22 14.72 5.42 14.32 5.81C13.94 6.19 13.73 6.7 13.73 7.24C13.73 7.78 13.94 8.29 14.32 8.67Z" fill="#232536" fill-opacity="1.000000" fill-rule="nonzero"/>
		<path id="Vector" d="M0.68 18.95C0.85 18.95 1.03 18.88 1.16 18.75L3.36 16.55C3.62 16.29 3.62 15.86 3.36 15.6C3.1 15.34 2.67 15.34 2.41 15.6L0.21 17.8C-0.06 18.06 -0.06 18.49 0.21 18.75C0.34 18.88 0.51 18.95 0.68 18.95Z" fill="#FFD050" fill-opacity="1.000000" fill-rule="nonzero"/>
		<path id="Vector" d="M5.38 17.62C5.11 17.35 4.68 17.35 4.42 17.62L0.19 21.84C-0.07 22.11 -0.07 22.53 0.19 22.8C0.32 22.93 0.5 23 0.67 23C0.84 23 1.01 22.93 1.15 22.8L5.37 18.57C5.64 18.31 5.64 17.88 5.38 17.62Z" fill="#FFD050" fill-opacity="1.000000" fill-rule="nonzero"/>
		<path id="Vector" d="M6.44 19.63L4.24 21.83C3.97 22.09 3.97 22.52 4.24 22.78C4.37 22.92 4.54 22.98 4.71 22.98C4.89 22.98 5.06 22.92 5.19 22.78L7.39 20.58C7.65 20.32 7.65 19.89 7.39 19.63C7.13 19.37 6.7 19.37 6.44 19.63Z" fill="#FFD050" fill-opacity="1.000000" fill-rule="nonzero"/>
	</g>
</svg>

