<svg width="48.000000" height="48.000000" viewBox="0 0 48 48" fill="none" xmlns="http://www.w3.org/2000/svg" xmlns:xlink="http://www.w3.org/1999/xlink">
	<desc>
			Created with Pixso.
	</desc>
	<defs>
		<clipPath id="clip533_2339">
			<rect id="cyborg" rx="0.000000" width="23.000000" height="23.000000" transform="translate(12.500000 12.500000)" fill="white" fill-opacity="0"/>
		</clipPath>
		<clipPath id="clip533_2337">
			<rect id="business-and-trade 1" rx="0.000000" width="47.000000" height="47.000000" transform="translate(0.500000 0.500000)" fill="white" fill-opacity="0"/>
		</clipPath>
	</defs>
	<rect id="business-and-trade 1" rx="0.000000" width="47.000000" height="47.000000" transform="translate(0.500000 0.500000)" fill="#FFFFFF" fill-opacity="0"/>
	<g clip-path="url(#clip533_2337)">
		<rect id="cyborg" rx="0.000000" width="23.000000" height="23.000000" transform="translate(12.500000 12.500000)" fill="#FFFFFF" fill-opacity="0"/>
		<g clip-path="url(#clip533_2339)">
			<path id="Vector" d="M27.51 19.03C27.51 19.8 28.14 20.43 28.92 20.43L33.1 20.43C33.02 19.44 32.79 18.5 32.43 17.62L28.92 17.62C28.14 17.62 27.51 18.25 27.51 19.03Z" fill="#232536" fill-opacity="1.000000" fill-rule="nonzero"/>
			<path id="Vector" d="M18.37 36L26.81 36C27.2 36 27.51 35.68 27.51 35.29L27.51 31.68L28.92 31.68L28.92 27.11L21.89 21.84L15.56 21.84C15.17 21.84 14.86 22.15 14.86 22.54C14.86 25.03 15.88 27.42 17.67 29.14L17.67 35.29C17.67 35.68 17.98 36 18.37 36Z" fill="#FFD050" fill-opacity="1.000000" fill-rule="nonzero"/>
			<path id="Vector" d="M24 12C23.61 12 23.29 12.31 23.29 12.7L23.29 13.4L20.35 13.4C20.06 12.58 19.29 12 18.37 12C17.21 12 16.26 12.94 16.26 14.1C16.26 15.27 17.21 16.21 18.37 16.21C19.29 16.21 20.06 15.62 20.35 14.81L23.29 14.81L23.29 17.62L16.13 17.62C15.84 16.8 15.07 16.21 14.15 16.21C12.99 16.21 12 17.16 12 18.32C12 19.49 12.99 20.43 14.15 20.43C15.07 20.43 15.84 19.84 16.13 19.03L23.29 19.03L23.29 21.14L30.04 26.2C30.22 26.33 30.33 26.54 30.33 26.76L30.33 31.68L31.03 31.68C32.19 31.68 33.14 30.74 33.14 29.57L33.14 26.06L35.29 26.06C35.55 26.06 35.79 25.91 35.91 25.69C36.04 25.46 36.02 25.18 35.88 24.96L33.75 21.84L28.92 21.84C27.37 21.84 26.11 20.58 26.11 19.03C26.11 17.48 27.37 16.21 28.92 16.21L31.68 16.21C30.06 13.68 27.22 12 24 12L24 12Z" fill="#232536" fill-opacity="1.000000" fill-rule="nonzero"/>
		</g>
	</g>
</svg>
