<svg width="48.000000" height="48.000000" viewBox="0 0 48 48" fill="none" xmlns="http://www.w3.org/2000/svg" xmlns:xlink="http://www.w3.org/1999/xlink">
	<desc>
			Created with Pixso.
	</desc>
	<defs>
		<clipPath id="clip533_2312">
			<rect id="economy (1)" rx="0.000000" width="21.956522" height="23.000000" transform="translate(13.500000 12.500000)" fill="white" fill-opacity="0"/>
		</clipPath>
		<clipPath id="clip533_2310">
			<rect id="icon" rx="0.000000" width="47.000000" height="47.000000" transform="translate(0.500000 0.500000)" fill="white" fill-opacity="0"/>
		</clipPath>
	</defs>
	<rect id="icon" rx="0.000000" width="47.000000" height="47.000000" transform="translate(0.500000 0.500000)" fill="#FFFFFF" fill-opacity="0"/>
	<g clip-path="url(#clip533_2310)">
		<rect id="economy (1)" rx="0.000000" width="21.956522" height="23.000000" transform="translate(13.500000 12.500000)" fill="#FFFFFF" fill-opacity="0"/>
		<g clip-path="url(#clip533_2312)">
			<path id="Vector" d="M18.11 27.42L15.53 27.42C14.59 27.42 13.84 28.21 13.84 29.19L13.84 34.91C13.84 35.51 14.3 36 14.87 36L18.76 36C19.33 36 19.8 35.51 19.8 34.91L19.8 29.19C19.8 28.21 19.04 27.42 18.11 27.42Z" fill="#232536" fill-opacity="1.000000" fill-rule="nonzero"/>
			<path id="Vector" d="M25.69 23.94L23.11 23.94C22.18 23.94 21.42 24.74 21.42 25.71L21.42 34.91C21.42 35.51 21.89 36 22.46 36L26.35 36C26.92 36 27.38 35.51 27.38 34.91L27.38 25.71C27.38 24.74 26.63 23.94 25.69 23.94Z" fill="#232536" fill-opacity="1.000000" fill-rule="nonzero"/>
			<path id="Vector" d="M33.42 19.98L30.84 19.98C29.91 19.98 29.15 20.78 29.15 21.75L29.15 34.91C29.15 35.51 29.61 36 30.18 36L34.07 36C34.65 36 35.11 35.51 35.11 34.91L35.11 21.75C35.11 20.78 34.35 19.98 33.42 19.98Z" fill="#232536" fill-opacity="1.000000" fill-rule="nonzero"/>
			<path id="Vector" d="M31.36 12.66C31.05 12.2 30.53 11.95 29.99 12L25.11 12.47C24.56 12.53 24.1 12.87 23.87 13.39C23.64 13.91 23.7 14.5 24.01 14.96L24.28 15.37L18.23 19.74L18.22 19.75C17.79 20.06 17.5 20.54 17.42 21.08C17.33 21.62 17.45 22.17 17.75 22.62C18.05 23.07 18.51 23.37 19.03 23.46C19.14 23.48 19.25 23.49 19.36 23.49C19.77 23.49 20.16 23.36 20.5 23.11L26.56 18.73L26.84 19.15C27.13 19.57 27.58 19.81 28.07 19.81C28.12 19.81 28.17 19.81 28.22 19.81C28.76 19.76 29.23 19.41 29.45 18.89L31.5 14.24C31.73 13.72 31.68 13.13 31.36 12.66Z" fill="#FFD050" fill-opacity="1.000000" fill-rule="nonzero"/>
		</g>
	</g>
</svg>
